<?xml version="1.0" encoding="UTF-8"?>
<svg width="50px" height="40px" viewBox="0 0 50 40" version="1.1" xmlns="http://www.w3.org/2000/svg" xmlns:xlink="http://www.w3.org/1999/xlink">
    <!-- Generator: Sketch 52.2 (67145) - http://www.bohemiancoding.com/sketch -->
    <title>chatterbox</title>
    <desc>Created with Sketch.</desc>
    <g id="chatterbox" stroke="none" stroke-width="1" fill="none" fill-rule="evenodd">
        <circle id="person" fill="#333333" cx="27" cy="30" r="3"></circle>
        <path d="M21.727,26.904 C21.009,26.497 20.502,25.817 20.313,25.019 C21.029,23.878 21.406,22.564 21.406,21.203 C21.406,17.231 18.175,14 14.203,14 C10.231,14 7,17.231 7,21.203 C7,25.175 10.231,28.406 14.203,28.406 C15.394,28.406 16.559,28.114 17.598,27.557 C18.223,28.101 19.03,28.406 19.874,28.406 C20.544,28.406 21.194,28.214 21.755,27.852 C21.918,27.747 22.014,27.564 22.008,27.371 C22.002,27.176 21.896,26.999 21.727,26.904 Z M18.105,26.5 C17.996,26.376 17.843,26.311 17.688,26.311 C17.588,26.311 17.487,26.338 17.397,26.394 C16.441,26.985 15.336,27.297 14.203,27.297 C10.842,27.297 8.108,24.563 8.108,21.202 C8.108,17.841 10.842,15.107 14.203,15.107 C17.564,15.107 20.298,17.841 20.298,21.202 C20.298,22.421 19.941,23.595 19.266,24.596 C19.187,24.713 19.156,24.857 19.179,24.996 C19.323,25.867 19.737,26.65 20.353,27.248 C19.539,27.415 18.655,27.127 18.105,26.5 Z" id="talk" fill="#000000" fill-rule="nonzero"></path>
        <path d="M40.585571,21.8703647 C39.867571,21.4633647 39.360571,20.7833647 39.171571,19.9853647 C39.887571,18.8443647 40.264571,17.5303647 40.264571,16.1693647 C40.264571,12.1973647 37.033571,8.96636465 33.061571,8.96636465 C29.089571,8.96636465 25.858571,12.1973647 25.858571,16.1693647 C25.858571,20.1413647 29.089571,23.3723647 33.061571,23.3723647 C34.252571,23.3723647 35.417571,23.0803647 36.456571,22.5233647 C37.081571,23.0673647 37.888571,23.3723647 38.732571,23.3723647 C39.402571,23.3723647 40.052571,23.1803647 40.613571,22.8183647 C40.776571,22.7133647 40.872571,22.5303647 40.866571,22.3373647 C40.860571,22.1423647 40.754571,21.9653647 40.585571,21.8703647 Z M36.963571,21.4663647 C36.854571,21.3423647 36.701571,21.2773647 36.546571,21.2773647 C36.446571,21.2773647 36.345571,21.3043647 36.255571,21.3603647 C35.299571,21.9513647 34.194571,22.2633647 33.061571,22.2633647 C29.700571,22.2633647 26.966571,19.5293647 26.966571,16.1683647 C26.966571,12.8073647 29.700571,10.0733647 33.061571,10.0733647 C36.422571,10.0733647 39.156571,12.8073647 39.156571,16.1683647 C39.156571,17.3873647 38.799571,18.5613647 38.124571,19.5623647 C38.045571,19.6793647 38.014571,19.8233647 38.037571,19.9623647 C38.181571,20.8333647 38.595571,21.6163647 39.211571,22.2143647 C38.397571,22.3813647 37.513571,22.0933647 36.963571,21.4663647 Z" id="talk" fill="#333333" fill-rule="nonzero" transform="translate(33.362704, 16.169365) scale(-1, 1) rotate(18.000000) translate(-33.362704, -16.169365) "></path>
    </g>
</svg>