<?xml version="1.0" encoding="UTF-8"?>
<svg width="32px" height="32px" viewBox="0 0 32 32" version="1.1" xmlns="http://www.w3.org/2000/svg" xmlns:xlink="http://www.w3.org/1999/xlink">
    <!-- Generator: Sketch 42 (36781) - http://www.bohemiancoding.com/sketch -->
    <title>facebook</title>
    <desc>Created with Sketch.</desc>
    <defs></defs>
    <g id="Style-Guide" stroke="none" stroke-width="1" fill="none" fill-rule="evenodd">
        <g id="facebook" fill="#4A4A4A">
            <path d="M13.996399,22.5681027 L16.4422951,22.5681027 L16.4422951,16.3618619 L18.4156052,16.3618619 L18.7678224,14.04259 L16.4421588,14.04259 C16.4421588,14.04259 16.4354858,12.1699703 16.4354859,12.1699704 C16.4354858,11.1866939 17.4357301,11.186694 17.4357301,11.186694 L18.9284266,11.186694 C18.9284266,11.186694 18.9284267,9.12895708 18.9284266,9.12895707 C17.8202515,8.93590054 16.9114991,9.01683315 16.9114991,9.01683315 C16.9114991,9.01683315 14.3305664,8.94066128 13.996399,11.556506 C13.9960428,11.5565061 13.996399,14.0391204 13.996399,14.0391204 L12,14.0391204 L12,16.3163953 L13.996399,16.3163953 L13.996399,22.5681027 Z" id="Combined-Shape"></path>
        </g>
    </g>
</svg>