<?xml version="1.0" encoding="UTF-8"?>
<svg width="50px" height="40px" viewBox="0 0 50 40" version="1.1" xmlns="http://www.w3.org/2000/svg" xmlns:xlink="http://www.w3.org/1999/xlink">
    <!-- Generator: Sketch 52.2 (67145) - http://www.bohemiancoding.com/sketch -->
    <title>family</title>
    <desc>Created with Sketch.</desc>
    <g id="family" stroke="none" stroke-width="1" fill="none" fill-rule="evenodd">
        <circle id="person" fill="#000000" cx="23" cy="24" r="3"></circle>
        <path d="M17.727,20.904 C17.009,20.497 16.502,19.817 16.313,19.019 C17.029,17.878 17.406,16.564 17.406,15.203 C17.406,11.231 14.175,8 10.203,8 C6.231,8 3,11.231 3,15.203 C3,19.175 6.231,22.406 10.203,22.406 C11.394,22.406 12.559,22.114 13.598,21.557 C14.223,22.101 15.03,22.406 15.874,22.406 C16.544,22.406 17.194,22.214 17.755,21.852 C17.918,21.747 18.014,21.564 18.008,21.371 C18.002,21.176 17.896,20.999 17.727,20.904 Z M14.105,20.5 C13.996,20.376 13.843,20.311 13.688,20.311 C13.588,20.311 13.487,20.338 13.397,20.394 C12.441,20.985 11.336,21.297 10.203,21.297 C6.842,21.297 4.108,18.563 4.108,15.202 C4.108,11.841 6.842,9.107 10.203,9.107 C13.564,9.107 16.298,11.841 16.298,15.202 C16.298,16.421 15.941,17.595 15.266,18.596 C15.187,18.713 15.156,18.857 15.179,18.996 C15.323,19.867 15.737,20.65 16.353,21.248 C15.539,21.415 14.655,21.127 14.105,20.5 Z" id="talk" fill="#000000" fill-rule="nonzero"></path>
        <path d="M36.585571,15.8703647 C35.867571,15.4633647 35.360571,14.7833647 35.171571,13.9853647 C35.887571,12.8443647 36.264571,11.5303647 36.264571,10.1693647 C36.264571,6.19736465 33.033571,2.96636465 29.061571,2.96636465 C25.089571,2.96636465 21.858571,6.19736465 21.858571,10.1693647 C21.858571,14.1413647 25.089571,17.3723647 29.061571,17.3723647 C30.252571,17.3723647 31.417571,17.0803647 32.456571,16.5233647 C33.081571,17.0673647 33.888571,17.3723647 34.732571,17.3723647 C35.402571,17.3723647 36.052571,17.1803647 36.613571,16.8183647 C36.776571,16.7133647 36.872571,16.5303647 36.866571,16.3373647 C36.860571,16.1423647 36.754571,15.9653647 36.585571,15.8703647 Z M32.963571,15.4663647 C32.854571,15.3423647 32.701571,15.2773647 32.546571,15.2773647 C32.446571,15.2773647 32.345571,15.3043647 32.255571,15.3603647 C31.299571,15.9513647 30.194571,16.2633647 29.061571,16.2633647 C25.700571,16.2633647 22.966571,13.5293647 22.966571,10.1683647 C22.966571,6.80736465 25.700571,4.07336465 29.061571,4.07336465 C32.422571,4.07336465 35.156571,6.80736465 35.156571,10.1683647 C35.156571,11.3873647 34.799571,12.5613647 34.124571,13.5623647 C34.045571,13.6793647 34.014571,13.8233647 34.037571,13.9623647 C34.181571,14.8333647 34.595571,15.6163647 35.211571,16.2143647 C34.397571,16.3813647 33.513571,16.0933647 32.963571,15.4663647 Z" id="talk" fill="#000000" fill-rule="nonzero" transform="translate(29.362704, 10.169365) scale(-1, 1) rotate(18.000000) translate(-29.362704, -10.169365) "></path>
        <circle id="person" fill="#000000" cx="21" cy="33" r="3"></circle>
        <circle id="person" fill="#000000" cx="30" cy="31" r="3"></circle>
        <path d="M47.727,27.904 C47.009,27.497 46.502,26.817 46.313,26.019 C47.029,24.878 47.406,23.564 47.406,22.203 C47.406,18.231 44.175,15 40.203,15 C36.231,15 33,18.231 33,22.203 C33,26.175 36.231,29.406 40.203,29.406 C41.394,29.406 42.559,29.114 43.598,28.557 C44.223,29.101 45.03,29.406 45.874,29.406 C46.544,29.406 47.194,29.214 47.755,28.852 C47.918,28.747 48.014,28.564 48.008,28.371 C48.002,28.176 47.896,27.999 47.727,27.904 Z M44.105,27.5 C43.996,27.376 43.843,27.311 43.688,27.311 C43.588,27.311 43.487,27.338 43.397,27.394 C42.441,27.985 41.336,28.297 40.203,28.297 C36.842,28.297 34.108,25.563 34.108,22.202 C34.108,18.841 36.842,16.107 40.203,16.107 C43.564,16.107 46.298,18.841 46.298,22.202 C46.298,23.421 45.941,24.595 45.266,25.596 C45.187,25.713 45.156,25.857 45.179,25.996 C45.323,26.867 45.737,27.65 46.353,28.248 C45.539,28.415 44.655,28.127 44.105,27.5 Z" id="talk" fill="#000000" fill-rule="nonzero" transform="translate(40.504133, 22.203000) scale(-1, 1) rotate(-24.000000) translate(-40.504133, -22.203000) "></path>
    </g>
</svg>