<?xml version="1.0" encoding="UTF-8"?>
<svg width="32px" height="32px" viewBox="0 0 32 32" version="1.1" xmlns="http://www.w3.org/2000/svg" xmlns:xlink="http://www.w3.org/1999/xlink">
    <!-- Generator: Sketch 42 (36781) - http://www.bohemiancoding.com/sketch -->
    <title>twitter</title>
    <desc>Created with Sketch.</desc>
    <defs></defs>
    <g id="Style-Guide" stroke="none" stroke-width="1" fill="none" fill-rule="evenodd">
        <g id="twitter" fill="#4A4A4A">
            <path d="M24,10.8671875 C23.5624978,11.5286491 23.0182324,12.0963518 22.3671875,12.5703125 L22.3671875,13 C22.3671875,13.7291703 22.2747405,14.4622359 22.0898438,15.1992188 C21.904947,15.9362016 21.6393246,16.6523403 21.2929688,17.3476562 C20.9466129,18.0429722 20.5026069,18.6927053 19.9609375,19.296875 C19.4192681,19.9010447 18.8125034,20.4283832 18.140625,20.8789062 C17.4687466,21.3294293 16.6940148,21.6848945 15.8164062,21.9453125 C14.9387977,22.2057305 14.0130257,22.3359375 13.0390625,22.3359375 C11.0650943,22.3359375 9.38542359,21.8906295 8,21 C8.23958453,21.0364585 8.49999859,21.0546875 8.78125,21.0546875 C9.51042031,21.0546875 10.2239548,20.9140639 10.921875,20.6328125 C11.6197952,20.3515611 12.2630179,19.9739607 12.8515625,19.5 C12.148434,19.4947916 11.5143257,19.2773459 10.9492188,18.8476562 C10.3841118,18.4179666 10.000001,17.8750033 9.796875,17.21875 C10.0156261,17.2604169 10.2187491,17.28125 10.40625,17.28125 C10.7083348,17.28125 10.9999986,17.2421879 11.28125,17.1640625 C10.5260379,17.0130201 9.89844,16.6367218 9.3984375,16.0351562 C8.898435,15.4335907 8.6484375,14.7369831 8.6484375,13.9453125 L8.6484375,13.90625 C9.11718984,14.1614596 9.61197656,14.2968749 10.1328125,14.3125 C9.67968523,14.0104152 9.3216159,13.6197941 9.05859375,13.140625 C8.7955716,12.6614559 8.6640625,12.1458361 8.6640625,11.59375 C8.6640625,11.057289 8.81249852,10.5260443 9.109375,10 C9.93229578,11.000005 10.9270775,11.7929658 12.09375,12.3789062 C13.2604225,12.9648467 14.5182224,13.2942705 15.8671875,13.3671875 C15.8203123,13.1640615 15.796875,12.9114598 15.796875,12.609375 C15.796875,11.7031205 16.1158822,10.9309928 16.7539062,10.2929688 C17.3919303,9.65494473 18.164058,9.3359375 19.0703125,9.3359375 C20.0026088,9.3359375 20.8072883,9.67968406 21.484375,10.3671875 C22.2291704,10.2161451 22.9192677,9.95052273 23.5546875,9.5703125 C23.3046862,10.3619831 22.8229202,10.9687479 22.109375,11.390625 C22.7604199,11.317708 23.390622,11.1432305 24,10.8671875 L24,10.8671875 Z" id="Combined-Shape"></path>
        </g>
    </g>
</svg>